#!OML:ASF F:\VICON\USERDATA\INSTALL\rory3\rory3.ASF
:FULLY-SPECIFIED
:DEGREES
139
root 0.929979 15.4146 -23.945 67.0518 -13.2896 38.7552
lowerback 61.6533 -17.66 17.6753
upperback 2.06884 3.94007 29.2439
thorax -27.4495 3.59758 34.3088
lowerneck -26.977 -2.75587 -50.4917
upperneck -2.17844 12.5456 24.3773
head -1.472 8.46043 16.124
rclavicle -2.8625e-014 8.5875e-014
rhumerus 71.2605 12.2595 -83.554
rradius 14.1227
rwrist -20.2528
rhand -31.384 13.0526
rfingers 7.12502
rthumb -4.65394 -16.8763
lclavicle -2.8625e-014 8.5875e-014
lhumerus 41.2016 19.928 9.39344
lradius 39.5191
lwrist -27.2298
lhand -22.6078 21.7745
lfingers 7.12502
lthumb 3.82185 51.72
rfemur -154.681 -13.8672 99.3067
rtibia 55.3062
rfoot -152.976 -104.032
rtoes 49.7458
lfemur 19.1713 -9.83662 -15.1626
ltibia -1.90833e-014
lfoot 33.3934 24.6543
ltoes -17.1359
140
root 0.930737 15.3592 -23.9267 66.6483 -15.8446 39.8798
lowerback 61.5439 -17.9488 17.9575
upperback 1.54558 3.6174 28.7146
thorax -27.7282 3.3892 33.3795
lowerneck -28.2198 -3.53665 -49.9939
upperneck -0.409148 11.8188 25.5834
head -0.549533 8.04374 16.7892
rclavicle 1.39944e-013 8.74653e-014
rhumerus 71.3504 11.0442 -90.9613
rradius 12.3864
rwrist -11.5906
rhand -31.0958 15.8412
rfingers 7.12502
rthumb -4.37564 -14.0936
lclavicle 1.39944e-013 8.74653e-014
lhumerus 42.5418 22.7819 11.1333
lradius 38.0088
lwrist -29.3823
lhand -24.1581 18.238
lfingers 7.12502
lthumb 2.3247 48.2051
rfemur -155.322 -13.6739 96.9124
rtibia 55.6666
rfoot -149.693 -104.183
rtoes 49.8983
lfemur 22.1933 -11.4427 -16.7492
ltibia 3.33958e-014
lfoot 32.133 28.6293
ltoes -14.9803
141
root 0.933848 15.3086 -23.918 65.9746 -18.4783 41.112
lowerback 61.5197 -18.3837 18.1951
upperback 0.999055 3.06455 28.0551
thorax -27.8751 3.06485 32.4105
lowerneck -26.633 -2.52084 -49.5728
upperneck -2.77695 12.3835 24.8666
head -1.61824 8.43462 16.2524
rclavicle -1.27222e-014 1.30403e-013
rhumerus 72.6939 13.6243 -82.4316
rradius 16.3326
rwrist -19.3591
rhand -32.4151 15.9276
rfingers 7.12502
rthumb -5.64949 -13.9771
lclavicle -1.27222e-014 1.30403e-013
lhumerus 47.1067 26.4891 16.3687
lradius 34.4174
lwrist -35.2049
lhand -26.5283 13.4032
lfingers 7.12502
lthumb 0.0355007 43.383
rfemur -155.818 -13.8942 93.977
rtibia 55.8368
rfoot -142.031 -105.924
rtoes 51.2747
lfemur 25.4199 -13.108 -18.6887
ltibia -6.36111e-015
lfoot 29.9834 32.9788
ltoes -14.6665
142
root 0.940737 15.2629 -23.9135 65.3737 -20.6766 42.1937
lowerback 61.1179 -18.7177 18.6627
upperback 0.63788 2.6581 27.5887
thorax -27.7825 2.73259 31.4385
lowerneck -27.5744 -3.13695 -49.5099
upperneck -1.93144 11.9628 26.0662
head -1.16079 8.26636 16.9036
rclavicle -3.18055e-015 7.63333e-014
rhumerus 73.8895 14.8823 -77.9065
rradius 19.6413
rwrist -23.5875
rhand -34.2257 17.7428
rfingers 7.12502
rthumb -7.39744 -12.1079
lclavicle -3.18055e-015 7.63333e-014
lhumerus 39.9319 22.1253 6.18168
lradius 42.3363
lwrist -25.0247
lhand -25.6985 17.6706
lfingers 7.12502
lthumb 0.836921 47.6487
rfemur -155.948 -14.6026 90.5289
rtibia 55.9823
rfoot -144.599 -107.107
rtoes 51.2867
lfemur 28.6398 -14.7946 -20.321
ltibia -2.8625e-014
lfoot 27.808 37.9662
ltoes -11.0525
143
root 0.949604 15.2202 -23.9182 64.6948 -22.6064 43.3201
lowerback 60.7601 -19.1907 19.3339
upperback 0.111434 2.28213 27.0477
thorax -27.9484 2.43224 30.3563
lowerneck -26.8846 -2.82705 -49.2987
upperneck -2.6023 11.9816 26.4662
head -1.4693 8.31293 17.0314
rclavicle -1.36764e-013 -9.54166e-014
rhumerus 74.6021 15.6353 -74.008
rradius 23.3278
rwrist -27.3939
rhand -35.9833 19.8251
rfingers 7.12502
rthumb -9.09372 -9.95883
lclavicle -1.36764e-013 -9.54166e-014
lhumerus 40.2032 22.7794 5.98243
lradius 43.495
lwrist -23.6628
lhand -24.2161 19.6521
lfingers 7.12502
lthumb 2.26867 49.6198
rfemur -156.217 -15.2036 87.6541
rtibia 56.1848
rfoot -150.511 -107.135
rtoes 50.0433
lfemur 31.9316 -16.5975 -21.8774
ltibia -7.95139e-014
lfoot 22.718 43.2195
ltoes -5.50215
144
root 0.954961 15.182 -23.9335 63.5066 -24.7382 44.6633
lowerback 60.5051 -19.5135 19.2842
upperback 0.314692 1.73847 27.0696
thorax -27.2911 2.17459 30.6147
lowerneck -29.4082 -4.68179 -51.3674
upperneck -1.14225 11.576 28.8373
head -0.853425 8.34725 18.6038
rclavicle -3.49861e-014 -1.17681e-013
rhumerus 76.659 16.7209 -69.3789
rradius 27.2894
rwrist -30.7124
rhand -37.6698 21.0789
rfingers 7.12502
rthumb -10.7208 -8.62752
lclavicle -3.49861e-014 -1.17681e-013
lhumerus 39.4377 24.8083 6.1925
lradius 43.5608
lwrist -23.9286
lhand -24.0447 20.0868
lfingers 7.12502
lthumb 2.43417 50.0526
rfemur -156.624 -15.6113 85.3788
rtibia 56.3157
rfoot -151.644 -106.991
rtoes 49.6232
lfemur 35.6588 -18.4054 -24.0188
ltibia -6.36111e-015
lfoot 16.4493 48.138
ltoes 1.40568
145
root 0.956602 15.1464 -23.9606 61.3885 -27.2671 46.3489
lowerback 61.694 -20.4407 19.7932
upperback -1.10952 1.16189 25.4971
thorax -28.6969 1.90832 28.5877
lowerneck -26.4852 -1.79766 -47.5024
upperneck -2.832 12.5763 26.6475
head -1.69174 8.56851 16.8523
rclavicle -3.49861e-014 4.45278e-014
rhumerus 75.6322 16.1046 -70.6376
rradius 29.5803
rwrist -30.5884
rhand -39.6722 21.9123
rfingers 7.12502
rthumb -12.6517 -7.68447
lclavicle -3.49861e-014 4.45278e-014
lhumerus 40.9868 24.8071 5.66944
lradius 42.6546
lwrist -25.9801
lhand -26.3071 17.0797
lfingers 7.12502
lthumb 0.249176 47.0593
rfemur -156.887 -16.3261 82.9144
rtibia 56.4108
rfoot -149.439 -107.197
rtoes 49.7836
lfemur 40.1159 -20.0568 -27.2198
ltibia -4.13472e-014
lfoot 13.9871 50.8635
ltoes -0.957068
